<?xml version="1.0" standalone="no"?>
<!DOCTYPE svg PUBLIC "-//W3C//DTD SVG 20010904//EN"
 "http://www.w3.org/TR/2001/REC-SVG-20010904/DTD/svg10.dtd">
<svg version="1.0" xmlns="http://www.w3.org/2000/svg"
 width="547.000000pt" height="415.000000pt" viewBox="0 0 547.000000 415.000000"
 preserveAspectRatio="xMidYMid meet">

<g transform="translate(0.000000,415.000000) scale(0.100000,-0.100000)"
fill="#000000" stroke="none">
<path d="M4121 2354 c0 -11 3 -14 6 -6 3 7 2 16 -1 19 -3 4 -6 -2 -5 -13z"/>
<path d="M4120 2274 c0 -8 5 -12 10 -9 6 4 8 11 5 16 -9 14 -15 11 -15 -7z"/>
<path d="M4079 2123 c-13 -16 -12 -17 4 -4 16 13 21 21 13 21 -2 0 -10 -8 -17
-17z"/>
<path d="M3985 1890 c3 -5 13 -10 21 -10 8 0 12 5 9 10 -3 6 -13 10 -21 10 -8
0 -12 -4 -9 -10z"/>
<path d="M4086 1825 c-9 -26 -7 -32 5 -12 6 10 9 21 6 23 -2 3 -7 -2 -11 -11z"/>
<path d="M3970 1781 c0 -6 7 -11 15 -11 9 0 28 -8 43 -17 l27 -17 -21 21 c-25
25 -64 39 -64 24z"/>
<path d="M4090 1781 c0 -5 11 -8 24 -7 13 0 22 4 19 9 -6 10 -43 9 -43 -2z"/>
<path d="M3940 1690 c0 -5 5 -10 11 -10 5 0 7 5 4 10 -3 6 -8 10 -11 10 -2 0
-4 -4 -4 -10z"/>
<path d="M4094 1635 c-4 -9 -4 -19 0 -22 3 -4 6 1 6 11 0 13 4 15 19 6 25 -13
41 -13 41 1 0 6 -6 9 -12 6 -7 -2 -21 0 -31 5 -12 6 -19 5 -23 -7z"/>
<path d="M3920 1550 c0 -5 5 -10 11 -10 5 0 7 5 4 10 -3 6 -8 10 -11 10 -2 0
-4 -4 -4 -10z"/>
<path d="M3890 1520 c0 -5 9 -10 20 -10 11 0 20 5 20 10 0 6 -9 10 -20 10 -11
0 -20 -4 -20 -10z"/>
<path d="M3960 1526 c0 -2 7 -9 15 -16 9 -7 15 -8 15 -2 0 5 -7 12 -15 16 -8
3 -15 4 -15 2z"/>
<path d="M4066 1501 c-3 -5 1 -11 9 -14 9 -4 12 -1 8 9 -6 16 -10 17 -17 5z"/>
<path d="M3942 1478 c4 -9 2 -19 -5 -22 -7 -2 -3 -5 9 -5 11 -1 26 -7 34 -13
11 -10 11 -9 0 7 -8 11 -21 27 -29 35 -13 13 -14 13 -9 -2z"/>
<path d="M4031 1404 c0 -11 3 -14 6 -6 3 7 2 16 -1 19 -3 4 -6 -2 -5 -13z"/>
<path d="M4049 1383 c-1 -5 -1 -11 0 -15 0 -5 -4 -8 -10 -8 -6 0 -9 -7 -6 -14
4 -11 1 -13 -11 -9 -16 5 -16 5 0 -12 18 -19 43 -11 34 11 -3 8 6 20 22 29
l27 15 -29 -6 c-20 -5 -27 -4 -22 5 4 6 5 11 2 11 -3 0 -7 -3 -7 -7z"/>
<path d="M3111 1364 c0 -11 3 -14 6 -6 3 7 2 16 -1 19 -3 4 -6 -2 -5 -13z"/>
<path d="M3912 1373 c-20 -3 -31 -9 -29 -16 3 -7 11 -10 18 -8 8 1 26 4 41 5
31 2 45 12 33 24 -4 4 -10 1 -12 -5 -3 -7 -9 -13 -14 -13 -6 0 -7 5 -4 10 3 6
5 9 3 8 -2 0 -18 -3 -36 -5z"/>
<path d="M4068 1285 c5 -28 14 -26 19 5 2 12 -3 20 -11 20 -9 0 -12 -8 -8 -25z"/>
<path d="M3147 1280 c-3 -11 -1 -20 4 -20 5 0 9 9 9 20 0 11 -2 20 -4 20 -2 0
-6 -9 -9 -20z"/>
<path d="M3825 1290 c3 -5 8 -10 11 -10 2 0 4 5 4 10 0 6 -5 10 -11 10 -5 0
-7 -4 -4 -10z"/>
<path d="M3190 1255 c6 -8 22 -17 33 -21 12 -4 34 -15 50 -26 23 -16 27 -17
27 -4 0 9 -3 15 -7 14 -5 -1 -27 10 -50 25 -48 30 -73 36 -53 12z"/>
<path d="M3138 1203 c7 -3 16 -2 19 1 4 3 -2 6 -13 5 -11 0 -14 -3 -6 -6z"/>
<path d="M3922 1174 c-1 -13 3 -24 9 -24 5 0 7 5 3 11 -3 6 -1 15 6 19 9 5 8
8 -2 12 -9 4 -14 -2 -16 -18z"/>
<path d="M3203 1133 c9 -2 23 -2 30 0 6 3 -1 5 -18 5 -16 0 -22 -2 -12 -5z"/>
<path d="M3170 1110 c-8 -5 -10 -10 -5 -10 6 0 17 5 25 10 8 5 11 10 5 10 -5
0 -17 -5 -25 -10z"/>
<path d="M3255 1090 c3 -5 12 -7 20 -3 21 7 19 13 -6 13 -11 0 -18 -4 -14 -10z"/>
<path d="M3418 1093 c-10 -2 -18 -8 -18 -13 0 -4 9 -6 20 -3 11 3 20 9 20 14
0 5 -1 8 -2 8 -2 -1 -11 -3 -20 -6z"/>
<path d="M3083 1013 c3 -2 18 -8 35 -12 22 -7 29 -6 26 2 -2 7 -18 12 -34 13
-17 1 -29 -1 -27 -3z"/>
</g>
</svg>
